<svg xmlns="http://www.w3.org/2000/svg" viewBox="21.902 0 1591.509 509.82">
  <path fill="#FFF" d="M469.279 31.381H740.96c9.751 0 19.31.765 29.061 2.103 5.736.765 11.28 1.53 17.016 2.485 2.677.382 5.162 1.338 7.839 1.912 6.692 1.53 13.192 3.441 19.501 5.736 8.604 3.25 16.634 7.265 24.281 12.236 6.5 4.206 12.427 9.177 17.972 14.53 5.353 5.162 9.942 11.089 14.148 17.207 4.397 6.5 7.839 13.575 10.515 20.84 2.294 6.5 4.589 13.001 5.736 19.693.765 4.78 1.529 9.56 2.103 14.53.765 6.118 1.147 12.236 1.147 18.545-.191 8.412-.956 16.634-2.103 24.855-.956 7.074-2.677 13.766-4.589 20.457-1.338 4.589-3.441 9.177-5.544 13.575-4.015 8.986-9.56 17.016-15.869 24.472-.382.574-.765 1.147-.956 1.338 2.103 2.294 4.015 4.397 6.118 6.5 3.824 3.633 7.074 7.648 10.133 11.854 4.589 6.118 7.839 13.001 10.707 19.884 3.633 8.986 5.353 18.354 6.692 27.723 1.721 11.471 1.912 22.943 1.912 34.605-.191 8.412-.765 16.825-1.721 25.428-.956 9.942-3.824 19.693-6.692 29.252-1.912 6.118-4.206 12.045-7.074 17.59s-6.5 10.898-9.942 16.251c-3.25 5.162-7.456 9.751-11.663 14.148-3.824 4.015-8.412 7.456-12.81 10.707-12.236 9.177-25.811 15.104-40.15 19.693-9.942 3.059-20.075 4.971-30.208 6.118-7.456.765-14.913 1.338-22.369 1.53-15.678.382-31.355.382-47.033.382h-115.67c-3.633 0-3.25.191-3.25-3.441v-34.414c0-.765 0-1.53-.191-2.486-.191 0-.382-.191-.382-.191-.574.574-.956.956-1.338 1.53-4.589 5.927-9.942 11.471-15.869 16.251-5.927 4.78-12.045 9.177-18.737 12.619-3.824 1.912-7.648 4.015-11.471 5.736-6.5 3.059-13.383 4.971-20.266 6.883-9.942 2.677-20.075 4.397-30.208 5.353-6.692.765-13.575.765-20.266 1.147-3.633.191-7.265.382-10.898.191-7.265-.191-14.53-.574-21.796-1.338-9.177-.956-18.163-2.485-26.958-4.78-10.133-2.677-20.266-5.927-29.635-10.898-.382-.191-.765-.191-1.721-.574.956 2.677 1.912 5.162 2.868 7.648-.765.191-1.147.191-1.721.191H227.804c-2.868 0-2.485.191-3.441-2.294-6.692-17.972-13.383-35.753-20.075-53.724-2.485-6.5-4.78-12.81-7.265-19.31-.191-.765-.574-1.338-1.147-2.485-.191.956-.382 1.53-.574 1.912v72.27c0 1.147 0 2.294-.191 3.25-1.912.574-143.202.574-145.878.191 0-.574-.191-1.147-.191-1.721V31.572c1.912-.574 143.01-.765 146.069-.191 0 .956.191 1.912.191 3.059v57.166c0 .956.191 1.912.191 2.868.191 0 .382 0 .574.191.382-.574.574-1.147.956-1.721 6.309-14.339 12.427-28.679 18.737-43.209 2.294-5.353 4.78-10.707 6.883-16.251.765-1.912 1.721-2.485 3.824-2.485h226.178c4.015 0 3.824-.382 3.824 3.633V360.42c0 2.677.191 5.544.574 8.221.382 2.677.956 3.059 3.824 3.25h3.824c1.53 0 2.677-.574 3.25-2.103 1.147-2.868 2.103-5.736 2.103-8.795V35.396c-.765-.956-.765-2.295-.765-4.015z"/>
  <path fill="#043B71" d="M48.087 259.471V34.058c0-2.294.382-2.868 2.868-2.868h141.863c2.103 0 2.677.574 2.677 2.677v58.504c0 .574.191 1.147.382 1.912.191-.574.574-.956.765-1.53 8.604-19.884 17.207-39.768 25.811-59.651.574-1.338 1.147-1.721 2.677-1.721h229.237c2.103 0 1.912 1.147 1.912 2.485V360.61c0 1.721 0 3.441.382 5.162.382 2.485-1.147 5.927 3.25 6.5 4.206.574 7.839 0 8.412-5.162.191-1.912.765-3.824.765-5.927V34.439c0-2.485.382-3.25 3.059-3.25 89.668 0 179.337-.191 268.814.191 29.826.191 59.078 4.015 86.227 17.59 29.061 14.53 48.753 37.091 57.357 68.637 9.751 35.561 8.412 70.549-6.883 104.581-3.633 8.03-8.604 15.295-14.53 21.987-1.721 2.103-1.529 2.868.382 4.397 20.649 18.354 29.826 42.062 32.311 69.02 2.485 29.634 1.912 59.078-8.412 87.565-12.236 33.267-34.605 56.784-67.681 69.976-19.119 7.648-39.194 11.663-59.843 11.854-56.592.382-113.185.382-169.777.574-1.912 0-2.485-.382-2.485-2.294.191-12.045 0-24.09 0-36.326 0-.574-.191-.956-.191-1.53-.382.191-.765.382-.956.765-21.604 26.958-50.665 40.15-83.933 45.694-21.796 3.633-43.783 4.397-65.769 2.103-19.693-2.103-39.003-6.5-56.975-15.678-.382-.191-.765-.191-1.147-.382 0 .382 0 .956.191 1.338 3.824 6.118.956 6.5-4.589 6.5-48.945-.191-97.889-.191-146.834 0-2.103 0-3.25-.574-3.824-2.677l-26.958-72.27c-.191-.765-.574-1.338-.956-1.912-.191.765-.191 1.338-.191 2.103v72.27c0 2.103-.574 2.485-2.485 2.485H50.956c-2.103 0-2.677-.574-2.677-2.677-.192-75.327-.192-150.465-.192-225.602zm314.891 201.514c9.942 7.839 20.84 13.957 32.885 18.163 36.709 12.619 74.182 13.575 111.846 6.118 38.429-7.648 68.446-26.958 86.227-63.093.191-.382.574-.765.956-1.147 0 .574.191 1.147.191 1.721v54.68c0 2.103.574 2.677 2.677 2.677h153.526c10.898 0 21.796-1.147 32.502-2.868 20.075-3.25 39.003-9.56 55.828-21.031 28.105-19.31 41.679-47.224 47.415-79.918 3.25-18.545 2.677-37.091 1.529-55.828-1.912-29.252-12.81-54.107-36.709-72.27-1.338-.956-1.338-1.53-.191-2.677 11.663-11.854 20.266-25.428 25.237-41.488 6.5-21.031 7.265-42.253 4.78-64.049-3.441-26.384-13.383-49.327-33.267-67.49-13.575-12.619-29.826-20.457-47.224-25.62-22.178-6.5-44.93-8.221-67.873-8.221h-253.71c-2.485 0-3.25.382-3.25 3.25V356.02c0 6.118-.191 12.236-3.059 17.972-3.824 7.456-10.515 5.736-16.634 5.162-5.162-.382-6.883-4.397-7.456-8.795-.574-3.25-.574-6.5-.574-9.751V40.938c0-1.721-.382-2.294-2.294-2.294H229.717c-1.53 0-2.294.382-2.868 1.912-12.427 29.252-25.046 58.504-37.856 87.756-.191.574-.574 1.147-.956 1.721 0-.574-.191-1.338-.191-1.912v-86.8c0-2.103-.574-2.677-2.677-2.677H58.027c-2.103 0-2.485.574-2.485 2.485v436.679c0 1.912.382 2.294 2.294 2.294h127.333c2.294 0 2.485-.765 2.485-2.677V371.506c0-.574.191-1.338.191-1.912.382.574.574 1.147.765 1.721 13.192 35.561 26.384 70.932 39.576 106.493.382 1.338.765 2.294 2.677 2.294h136.701c1.912 0 1.912-.574 1.338-2.103-2.294-5.545-4.397-11.28-6.5-16.825.384.002.576.002.576-.189zM74.28 259.662V60.442c0-2.103.382-2.677 2.677-2.677h89.668c2.103 0 2.677.574 2.677 2.677v156.394c0 .765-.574 2.103.574 2.294 1.147.191 1.338-1.147 1.53-1.912 13.574-30.973 27.149-62.328 40.724-93.492 9.177-21.413 18.545-42.827 27.723-64.24.574-1.338 1.147-1.53 2.294-1.53h185.837c2.486 0 1.912 1.338 1.912 2.677v299.786c0 10.707.191 21.987 8.795 30.208 10.133 9.751 22.752 10.133 35.179 6.5 11.089-3.25 17.016-12.045 19.693-23.134 1.338-5.736 1.53-11.28 1.53-17.016V60.823c0-2.485.574-3.059 3.059-3.059h89.477c2.103 0 2.677.574 2.677 2.677 0 97.316 0 194.632-.191 291.756 0 23.516-3.441 46.268-14.913 67.108-11.471 20.649-28.87 34.605-51.048 42.635-29.634 10.707-60.416 11.663-91.389 7.648-20.075-2.677-39.003-8.795-55.445-20.649-17.972-12.81-29.061-30.399-35.37-51.239-4.78-16.06-6.5-32.502-6.5-49.136V66.176c0-.765 0-1.53-.191-2.294-.574.574-1.147 1.147-1.338 1.912-13.766 28.487-27.531 56.975-41.297 85.462-8.03 16.825-16.251 33.458-24.472 50.283-5.162 10.707-10.324 21.605-15.678 32.311-2.103 4.015.191 7.265 1.53 10.133 8.221 17.589 14.722 35.753 22.178 53.724 12.427 30.208 24.664 60.607 36.9 90.815 9.368 23.134 18.545 46.268 28.105 69.211 1.53 3.441 1.338 4.397-2.868 4.397-31.164-.191-62.328-.191-93.301 0-1.338 0-2.485-.191-3.059-1.721-10.707-29.061-21.605-58.122-32.502-87.183-6.118-16.442-12.236-32.885-18.354-49.327-.191-.574-.574-.956-.765-1.53-.382.382-.765.956-.956 1.338-6.5 12.619-12.81 25.046-19.31 37.664-.574.956-.765 2.294-.765 3.441v94.83c0 2.103-.574 2.486-2.485 2.486H76.963c-2.103 0-2.485-.574-2.485-2.486-.198-66.912-.198-133.446-.198-199.98zm540.878 1.147V61.78c0-2.485.574-2.868 2.868-2.868 39.194 0 78.388 0 117.391.191 20.075 0 40.15 1.147 59.843 6.692s37.282 14.53 50.474 30.782c11.089 13.957 16.825 30.017 18.737 47.606 2.103 17.972 1.529 35.561-3.441 53.151-5.162 18.354-15.104 33.076-30.399 44.356-2.868 2.103-5.736 4.015-8.795 5.736-2.485 1.338-2.485 2.103 0 3.633 10.515 6.309 20.84 12.81 29.252 21.987 11.28 12.045 17.207 26.384 19.31 42.444 2.677 19.884 2.677 39.768-.382 59.46-4.589 28.679-16.825 52.96-42.062 69.02-18.928 12.045-40.15 17.781-62.137 18.163-49.518.765-98.845.574-148.364.765-2.103 0-2.103-.765-2.103-2.294-.192-66.726-.192-133.261-.192-199.795zm96.36 75.329v47.798c0 1.147-.382 2.103 1.529 2.103 11.663 0 23.325-.191 34.988-1.53 9.942-1.338 19.31-4.015 24.09-13.766 8.221-16.06 7.648-33.267 5.353-50.474-2.294-18.737-11.089-27.149-29.443-30.782-11.28-2.103-22.752-2.677-34.414-2.868-2.103 0-2.294.574-2.294 2.486.191 15.678.191 31.355.191 47.033zm-1.339-163.468v40.724c0 1.721.382 2.485 2.294 2.294 8.795-.765 17.398-1.147 26.193-2.103 9.751-.956 19.501-2.868 25.428-11.854 8.604-13.001 7.456-27.723 6.5-42.253-.956-13.192-7.265-22.56-20.457-26.767-12.619-3.824-25.62-2.677-38.62-3.059-1.721 0-1.147 1.147-1.147 2.103-.191 13.766-.191 27.341-.191 40.915zm-393.661 72.844v97.698c0 1.147-.191 2.294-.382 3.441-.382-.956-.956-2.103-1.338-3.059-14.339-34.988-28.487-70.167-42.827-105.155-.574-1.338-.574-2.294 0-3.633 14.339-29.443 28.679-59.078 42.827-88.521.382-.765.765-1.338 1.147-2.103.191.765.382 1.721.382 2.485.191 32.886.191 65.771.191 98.847zm-7.456-3.059v-64.431c0-.574-.191-1.147-.191-1.721-.382.382-.574.765-.956 1.338-9.177 18.928-18.354 38.047-27.723 56.975-.574 1.147-.765 2.103-.191 3.25 9.368 22.943 18.737 45.886 28.105 68.829.191.574.574.956.956 1.338v-65.578zm53.724 218.913c0-.191-.191-.382-.191-.382.191 0 .382 0 .574.191-.191-.001-.383-.001-.383.191zm364.792-122.171v-28.296c0-1.721.191-2.486 2.294-2.294 4.206.574 8.604.765 12.81 1.721 9.942 2.103 12.81 4.971 13.957 16.06 1.147 11.28 1.147 22.752-1.912 33.841-1.147 4.397-4.015 7.074-8.604 7.456-4.015.382-8.221.956-12.236 1.721-4.206.574-6.883.382-6.309-5.353.382-8.222 0-16.635 0-24.856zm7.265.191v20.457c0 .574.191 1.721.574 1.912 3.25 1.53 12.045-2.294 12.619-5.736 2.103-10.133 2.103-20.266.956-30.399-.574-5.353-8.03-9.942-13.383-8.795-1.338.191-.765 1.338-.765 1.912-.001 6.884-.001 13.766-.001 20.649zm-7.265-166.718v-21.605c0-.574-.765-1.912.765-1.912 6.5.382 13.383-.382 18.737 4.206 3.633 3.059 3.059 8.03 3.441 12.236.382 6.883-.191 13.766-1.338 20.649-1.147 6.692-6.118 8.03-11.663 8.795-9.942 1.338-9.942 1.53-9.942-8.412V172.67zm7.265 0v12.045c0 .956-.956 3.059.765 3.059 2.103 0 5.353.765 6.118-2.677 1.912-8.412 2.294-17.016.382-25.62-.574-2.677-4.206-2.294-6.5-2.485-1.721-.191-.765 1.912-.765 2.868-.191 4.398 0 8.604 0 12.81z"/>
  <g stroke="#043B71" stroke-width="8" stroke-miterlimit="10">
    <path fill="#FFF" d="M917.415 482.211l-12.961-40.375h-45.906l-13.314 40.375h-81.899l83.102-232.797h72.122l82.364 232.797z"/>
    <path fill="#043B71" d="M859.164 267.361h46.554l69.664 196.904h-44.617l-12.993-40.476H845.26l-13.348 40.476h-43.037l70.289-196.904zm-2.711 122.497h50.428l-24.873-77.479-25.555 77.479z"/>
    <path fill="#FFF" d="M999.837 482.503V249.122h102.784c23.952 0 43.68 6.645 58.637 19.749 15.661 13.72 23.603 34.201 23.603 60.874 0 28.798-8.022 50.094-23.845 63.297-14.839 12.382-35.385 18.662-61.065 18.662h-22.759v70.8h-77.355zm96.193-141.208c2.633 0 7.389-.306 9.65-2.356.634-.574 1.826-3.174 1.826-8.928 0-6.197-1.332-7.964-1.346-7.98-1.705-1.42-5.324-2.234-10.13-2.234h-18.839v21.498h18.839z"/>
    <path fill="#043B71" d="M1149.331 379.037c-11.526 9.618-27.986 14.427-49.38 14.427h-40.998v70.8h-40.877V267.361h84.545c19.491 0 35.03 5.076 46.618 15.229 11.589 10.152 17.383 25.872 17.383 47.155 0 23.243-5.765 39.674-17.291 49.292zm-31.403-70.933c-5.21-4.362-12.509-6.546-21.898-6.546h-37.078v57.976h37.078c9.389 0 16.688-2.358 21.898-7.08 5.21-4.719 7.816-12.2 7.816-22.442.001-10.24-2.606-17.543-7.816-21.908z"/>
    <path fill="#FFF" d="M1186.205 483.663V250.281h102.784c23.952 0 43.68 6.645 58.637 19.749 15.661 13.72 23.603 34.201 23.603 60.874 0 28.798-8.022 50.094-23.845 63.297-14.839 12.382-35.385 18.662-61.065 18.662h-22.759v70.8h-77.355zm96.194-141.208c2.633 0 7.389-.306 9.65-2.356.634-.574 1.826-3.174 1.826-8.928 0-6.197-1.332-7.964-1.346-7.98-1.705-1.42-5.324-2.234-10.13-2.234h-18.839v21.498h18.839z"/>
    <path fill="#043B71" d="M1335.699 380.197c-11.526 9.618-27.986 14.427-49.38 14.427h-40.998v70.8h-40.877V268.52h84.545c19.491 0 35.03 5.076 46.618 15.229 11.589 10.152 17.383 25.872 17.383 47.155 0 23.244-5.765 39.675-17.291 49.293zm-31.402-70.934c-5.21-4.362-12.509-6.546-21.898-6.546h-37.078v57.976h37.078c9.389 0 16.688-2.358 21.898-7.08 5.21-4.719 7.816-12.2 7.816-22.442 0-10.24-2.607-17.543-7.816-21.908z"/>
    <path fill="#FFF" d="M1472.47 496.802c-30.001 0-54.38-7.228-72.458-21.483-19.117-15.071-29.223-36.722-29.223-62.613v-18.239h38.754c-2.893-1.455-5.464-2.964-7.741-4.538-12.694-8.701-27.807-25.76-27.807-57.641 0-22.945 8.586-42.296 25.519-57.514 16.375-14.713 39.723-22.173 69.396-22.173 24.902 0 46.641 6.758 64.616 20.086 19.446 14.424 29.772 35.254 30.692 61.912l.651 18.867h-31.571c4.773 2.38 8.98 5.014 12.661 7.919 16.06 12.676 24.548 31.53 24.548 54.527 0 23.482-9.168 43.224-27.25 58.681-17.238 14.737-41.054 22.209-70.787 22.209zm-26.11-86.652c1.123 7.932 3.052 10.571 3.428 11.019 3.041 3.616 10.534 5.626 21.068 5.626 9.756 0 15.272-1.199 18.182-2.205 4.994-1.743 5.297-3.165 5.316-5.203-2.372-1.388-8.226-4.031-21.536-6.881l-21.406-4.695c-1.905-.42-3.759-.844-5.562-1.271l.51 3.61zm2.494-80.923c.407.225 4.488 2.333 21.349 6.273l18.255 4.305-.213-3.455c-.379-6.132-2.455-8.345-5.916-10.096-3.923-1.965-9.422-2.978-16.279-2.978-7.083 0-12.609 1.176-15.983 3.4-1.368.902-1.509 1.222-1.522 2.38l.309.171z"/>
    <path fill="#043B71" d="M1428.301 412.706c1.274 8.996 3.774 15.719 7.501 20.171 6.819 8.105 18.504 12.156 35.053 12.156 9.91 0 17.959-1.069 24.141-3.206 11.731-4.095 17.596-11.709 17.596-22.843 0-6.499-2.874-11.532-8.618-15.095-5.749-3.473-14.862-6.546-27.339-9.217l-21.317-4.675c-20.952-4.629-35.346-9.662-43.182-15.095-13.271-9.084-19.904-23.287-19.904-42.613 0-17.633 6.49-32.281 19.472-43.949 12.983-11.665 32.05-17.5 57.204-17.5 21.004 0 38.921 5.5 53.753 16.498 14.831 11 22.605 26.964 23.327 47.89h-39.541c-.73-11.843-6.026-20.259-15.886-25.248-6.575-3.293-14.745-4.943-24.513-4.943-10.867 0-19.539 2.137-26.022 6.412-6.482 4.275-9.722 10.242-9.722 17.9 0 7.036 3.195 12.29 9.587 15.763 4.107 2.317 12.826 5.033 26.16 8.149l34.555 8.149c15.145 3.563 26.495 8.329 34.055 14.294 11.737 9.264 17.606 22.666 17.606 40.209 0 17.99-6.954 32.929-20.862 44.818-13.907 11.889-33.553 17.834-58.936 17.834-25.923 0-46.312-5.855-61.165-17.566-14.853-11.709-22.277-27.806-22.277-48.291h39.274z"/>
  </g>
</svg>
