<svg xmlns="http://www.w3.org/2000/svg" version="1.1" x="0" y="0" viewBox="9 583 594 202" enable-background="new 9 583 594 202" xml:space="preserve">
  <style>
	g {
		fill: #043B71;
	}
	g:hover{
		fill: #082A4C;
	}
  </style>
  <g>
    <path fill-rule="evenodd" d="M459.6 758.9c-5.2 6.1-11.3 10.3-18.2 13.5 -10.4 4.7-21.4 6.4-32.7 6.9 -14.5 0.6-28.9-0.9-42.7-6.9 0.8 3.3-1.2 3.1-2.9 3.1 -21.3 0-42.4 0-63.6 0.2 -1.8 0-2.6-0.5-3.2-2.1 -3.8-9.6-7.8-19.1-12.1-29.5 0 9.3 0 17.7 0 26.2 0 5.5 0 5.5-5.5 5.5 -19.4 0-38.9 0-58.3 0 -1.8 0-2.1-0.5-2.1-2.1 0-20.8 0-41.5 0-62.3 0-0.6 0-1.2 0-2.3 -2.9 4.1-5.2 8-8 11.6 -1.8 2.4-2.3 4.9-2.1 7.8 0.2 13 0 25.9 0 38.9 0 5.5-3.1 9.3-8.6 9.8 -6.7 0.6-13.6 0.6-20.3 0 -5.2-0.6-8.1-4.1-8.1-9.3 0-11.9-0.3-23.7 0.2-35.6 0.2-5.7-1.2-10.4-4.4-15 -6-8.9-11.5-18.1-17.1-27.1 -0.2-0.2-0.3-0.3-0.6-0.8 0 0.9 0 1.5 0 2.3 -0.2 25.1-0.2 50.3-0.3 75.4 0 6.9-2.4 9.6-9.3 10.1 -6.1 0.5-12.4 0.5-18.5-0.2 -4.3-0.5-7.2-3.4-7.3-7.5 -0.3-13.6-0.3-27.2-0.5-40.9 0-0.3 0-0.8 0-1.8 -2.1 5-3.8 9.5-5.7 13.9 -3.4 8.1-6.7 16.2-10.1 24.3 -1.4 3.2-4.4 4.4-7.7 4.7 -6.3 0.8-12.5 0.3-19 0 -6-0.3-7.8-4.7-9.6-9.3 -4.1-10.4-8.1-20.8-12.7-32 0 6.6 0 12.1 0 17.7 0 7 0 13.9 0 21 -0.2 6.7-3.5 10.3-10.1 10.4 -4.9 0.2-9.6 0.2-14.5 0 -6.3-0.2-9.6-3.5-9.6-9.8 -0.5-36.8-0.5-73.7-0.5-110.3 0-4.9 3.5-9 9-9.3 9-0.5 18.2-0.6 27.2 0.3 5.7 0.6 6.9 5.2 8.6 9.5 7.3 19.4 15.1 39.2 22.9 58.9 0.2 0.5 0.2 0.5 0.5 0.5 3.2-7.8 6.3-15.6 9.5-23.3 5.5-13.6 11.2-27.2 16.7-40.7 1.7-4.1 5.5-5.5 9.5-5.7 13.8-0.2 27.4 0 41.2 0 6 0 8.6 4 11.3 8.3 7 11 13.9 21.9 21 32.9 0.8 1.2 0.9 0.8 1.5-0.2 8.3-12.1 16.7-24.2 25.1-36.3 0.5-0.6 0.5-1.4 0.5-2 0-19.4 0-38.7 0-58.1 0-1.4 0.3-1.7 1.7-1.7 20.8 0 41.6 0 62.4 0 1.5 0 1.8 0.5 1.8 2 0 7.8 0 15.5 0 24 3.7-7.8 7.3-14.8 10.4-22 1.2-2.9 2.8-4 6.1-4 32.7 0.2 65.5 0.2 98.2 0 1.5 0 1.8 0.3 1.8 1.8 0 43.3 0 86.6 0 129.7 0 1.4 0 2.8 0.2 4.1 0 1.1-0.2 2.4 1.7 2.6 1.8 0.2 3.4 0 3.7-2.1 0.2-1.1 0.3-2.1 0.3-3.2 0-43.6 0-87.2 0-131 0-1.7 0.5-2 2-2 39.6 0 79.4-0.2 119 0.2 15.8 0 31.2 1.8 45.1 10.3 12.5 7.5 19.6 18.5 21.9 33 1.4 9.3 0.8 18.4-2.1 27.4 -1.8 6-5.2 11.2-9.5 15.8 -0.5 0.5-1.1 0.8-0.3 1.4 11 8.6 14.8 20.2 15.3 33.7 0.3 9.5-0.2 19-3.4 28.2 -5.2 14.4-15 24-28.9 29.7 -10.9 4.4-22.3 5.8-33.8 5.8 -23.4 0.2-47 0-70.4 0 -1.4 0-1.8-0.3-1.7-1.7C459.6 769 459.6 764.2 459.6 758.9z
    	M280.7 631c4.3-9 8.3-17.3 12.1-25.4 1.7-3.7 3.5-7.3 5.2-11 0.3-0.8 0.9-0.8 1.5-0.8 32.1 0 64.3 0 96.5 0 1.1 0 1.4 0.3 1.4 1.4 0 43.1 0 86.3 0 129.4 0 6.3 1.5 8 7.2 7.3 3.2-0.3 5-2.9 5-7.2 0-21.7 0-43.3 0-65 0-21.4 0-42.8 0-64.3 0-1.4 0.3-1.7 1.7-1.7 38.7 0 77.4 0 116.1 0 13.2 0 26.2 1.4 38.2 7 14.5 6.7 23.3 17.9 25.4 34 1.5 11.9 0.5 23.4-5.8 34 -2 3.2-4.4 6.1-7.3 8.7 -0.5 0.5-0.8 0.8 0 1.2 12.2 8.4 16.5 20.7 16.7 34.9 0 8.9-0.3 17.4-3.5 26 -5.7 15.6-17 24.8-32.3 29.5 -8.7 2.6-17.6 3.7-26.5 3.7 -22.5 0.2-45 0-67.5 0 -1.5 0-1.8-0.5-1.8-1.8 0-7.2 0-14.5 0-21.9 -2 2.9-3.8 5.7-6 8.3 -8.3 9.9-19.3 14.8-31.5 17.3 -17.1 3.4-34.1 3.1-50.9-2 -5.5-1.7-10.7-4.3-15.8-7.8 1.1 2.4 2 4.7 3.1 6.9 0.5 0.9 0.2 1.2-0.8 1.2 -20.2 0-40.4 0-60.6 0 -1.5 0-1.7-1.2-2-2.1 -5.5-13.6-11.2-27.2-16.7-40.9 -0.2-0.5-0.5-0.9-0.9-1.8 0 1.1 0 1.7 0 2.1 0 13.6 0 27.4 0 41 0 1.2-0.3 1.7-1.7 1.7 -18.7 0-37.3 0-56 0 -1.5 0-1.5-0.6-1.5-1.8 0-23.4 0-46.8 0.2-70.2 0-0.6 0-1.2 0-2.4 -3.5 5-6.6 9.6-9.8 14.2 -2.1 3.1-4.1 6.1-6.4 9.3 -0.6 0.9-0.9 1.8-0.9 2.9 0 14.1 0 28.3 0 42.4 0 4.6-2 7-6.6 7.2 -6.1 0.2-12.2 0.2-18.2 0 -3.4-0.2-5.5-2.6-5.5-6.3 0-12.2-0.2-24.3 0-36.6 0.2-5-0.6-9.3-3.5-13.8 -7.6-11.2-14.7-22.8-21.9-34.3 -0.5-0.8-1.1-1.7-2.1-1.4 -1.2 0.3-1.2 1.4-1.2 2.6 0 12.2 0 24.6 0 36.9 0 15.6-0.2 31.4-0.3 47 0 3.4-1.7 5.4-5 5.7 -6.1 0.6-12.2 0.5-18.2 0 -4-0.3-5.5-2.3-5.5-6.7 -0.2-15.9-0.2-31.8-0.3-47.9 0-1.1 0.5-2.6-1.1-2.9s-2 1.1-2.4 2.1c-5.8 13.9-11.6 28-17.1 42.1 -1.7 4.3-4.4 6.1-8.7 6.1 -4.9 0-9.9-0.3-14.8-0.2 -4.3 0-6.1-2.6-7.5-6 -5.4-13.6-10.7-27.1-16.1-40.7 -0.5-1.1-0.8-2.3-2.3-2s-1.4 1.7-1.4 2.8c0 15.1 0 30.3 0 45.6 0 5.7-1.8 7.8-7.5 8 -4.7 0.2-9.6 0.2-14.4-0.2 -4-0.2-6-2.4-6-6.3 0-36.7-0.2-73.3-0.2-110 0-4.3 2.3-7.2 6.6-7.2 8.1-0.2 16.1 0.2 24.2 0.2 4.7 0 6.1 3.4 7.5 6.9 7.2 18.4 14.4 36.6 21.6 54.8 1.2 2.9 2.3 5.8 3.5 8.7 0.3 0.9 0.8 2 2 2s1.5-1.1 2-2c2.6-6.1 5-12.2 7.5-18.4 6.4-15.9 12.9-31.8 19.3-47.7 1.4-3.2 4-4.6 7.3-4.6 13.6 0 27.1 0 40.7 0 4.3 0 6.1 2.9 8.1 6 7.6 12.1 15.3 24 22.9 36.1 1.2 1.8 2.4 2.4 4 0.2 7.8-11.3 15.1-22.8 23.4-33.8 3.7-4.9 4.6-9.8 4.4-15.8 -0.3-15.9 0-31.8-0.2-47.9 0-1.5 0.5-1.8 1.8-1.8 18.5 0 37.2 0 55.7 0 1.4 0 1.7 0.3 1.7 1.7C280.5 607 280.7 618.5 280.7 631z"/>
    <path fill-rule="evenodd" d="M346.4 603.4c-6 11.3-11.6 21.7-17.1 32.1 -6.4 11.9-12.7 23.9-19.3 35.8 -1.2 2.1-0.8 4 0.2 5.8 6.3 12.5 11.6 25.6 17.3 38.2 6.6 14.7 13 29.2 19.7 43.8 2.8 6.1 3.1 6-3.5 6 -11.6 0-23.3-0.2-34.7 0.2 -2.9 0-4.3-0.8-5.4-3.5 -4.7-12.2-9.8-24.3-14.7-36.2 -2.1-5.4-4.4-10.9-6.7-16.2 -0.2-0.3-0.3-0.5-0.5-0.8 -0.2 0.3-0.5 0.5-0.6 0.8 -2.8 4.9-5.7 9.8-8.4 14.7 -0.3 0.6-0.5 1.4-0.5 2.1 0 12.4 0 24.8 0 37.2 0 1.4-0.3 1.7-1.7 1.7 -13 0-26.2 0-39.2 0 -1.2 0-1.7-0.3-1.7-1.7 0-25.4 0-50.9 0.2-76.3 0-3.5 3.4-6 5.2-8.7 4-6.3 8.4-12.2 12.4-18.5 2.8-4.3 0.6-8.7-4.6-9.2 -3.8-0.3-7.8-0.2-11.8-0.2 -1.1 0-1.4-0.3-1.4-1.4 0-15.5 0-30.9 0-46.4 0-1.2 0.5-1.4 1.5-1.4 13.2 0 26.2 0 39.3 0 1.4 0 1.7 0.5 1.7 1.8 0 20.5 0 41.2 0 61.7 0 0.6 0 1.7 0.4 2.1 0.3-0.5 0.7-1.2 1-1.7 9.6-20 19.3-39.9 28.6-60 1.5-3.2 3.2-3.8 6.4-3.8 26.2 0.2 52.2 0.2 78.3 0 1.5 0 2 0.3 2 2 0 40.1 0 80.2 0 120.1 0 5 0 10.4 4.9 13.6 5.4 3.5 11.2 3.5 16.8 1.1 5.2-2.4 7.3-7.2 7.3-12.7 0.2-9.6 0.2-19.1 0.2-28.8 0-31.2 0-62.4 0-93.5 0-1.4 0.3-1.8 1.8-1.8 13 0 26.2 0 39.2 0 1.2 0 1.7 0.3 1.7 1.5 0 39.3 0.2 78.6-0.2 118 0 11.9-2.6 23.4-11 32.6 -7.6 8.1-17.3 12.2-28 13.9 -16.5 2.6-33 2.6-48.8-3.8 -11.8-4.7-19.7-13.3-23.4-25.7 -2.1-7.2-2.8-14.5-2.8-21.9 0-36.7 0-69.2 0-105.9C346.7 609.9 346.6 604.9 346.4 603.4zM471.8 683.6c0-26.6 0-53.2 0-80 0-1.4 0.3-1.8 1.8-1.8 19.7 0.2 39.3 0 59.1 0.3 12.5 0.2 24.8 2.1 35.6 9.2 7.3 4.7 12.1 11.5 14.1 20 2.1 9.2 2.3 18.4-0.8 27.4 -2.8 8.4-8.4 14.5-16.2 18.8 -0.8 0.3-1.4 0.9-2 1.4 0.6 0.5 1.4 0.9 2 1.2 8 4.4 15.5 9.5 18.8 18.7 2.4 6.6 2.6 13.5 2.4 20.3 -0.2 9.9-1.8 19.3-7.7 27.5 -7 9.9-17.1 14.5-28.6 17 -5.5 1.2-11.2 1.7-16.8 1.7 -20 0-40.1 0-60.1 0 -1.4 0-1.8-0.3-1.8-1.8C471.8 737 471.8 710.4 471.8 683.6zM38 677.2c0 1.8 0 2.8 0 3.7 0 28.5 0 57.1 0 85.5 0 1.8-0.5 2.1-2.1 2.1 -3.7-0.2-7.3-0.2-10.9 0 -1.4 0-1.7-0.5-1.7-1.7 0-36.1 0-72.2 0-108.3 0-1.2 0.2-1.8 1.5-1.7 7 0 13 0.1 20.1 0 3 0 4 4 4.4 4.9 7.3 18.2 14.4 36.4 21.6 54.6 3.4 8.6 6.9 17.3 10.3 25.9 0.2 0.3 0.5 0.6 0.6 0.9 0.2-0.3 0.5-0.6 0.6-0.9 5.4-13.2 10.7-26.2 15.9-39.3 6.1-15 12.2-30 18.4-45 0.3-0.8 0.9-0.9 1.7-0.9 13.2 0 26.3 0 39.5 0 0.8 0 1.4 0.2 2 0.9 9.9 15.8 19.9 31.5 29.8 47.3 1.1 1.8 1.7 2.4 3.2 0.2 10.7-15.9 21.7-31.8 32.6-47.7 0.5-0.6 0.9-0.6 1.5-0.6 4.4 0 8.9 0 13.2 0 1.5 0 1.4 0.5 0.8 1.5 -6 8.7-11.9 17.6-17.9 26.3 -8.3 12.1-16.5 24-24.6 36.1 -0.5 0.6-0.6 1.7-0.6 2.4 0 14.5 0 28.9 0 43.5 0 1.5-0.3 2-1.8 2 -4.6-0.2-9-0.2-13.6 0 -1.4 0-1.8-0.3-1.8-1.8 0-14.2 0-28.5 0-42.5 0-4.7-3.5-7.6-5.7-11.2 -7-11.6-14.5-23.1-21.7-34.6 -4-6.3-8-12.5-11.9-18.8 -0.6-0.9-1.2-0.9-1.9-0.6 -0.4 0.5-0.7 1.1-0.7 1.7 0 35.2 0.1 70.4 0.1 105.6 0 1.8-0.5 2.4-2.3 2.3 -4-0.2-8.1-0.2-12.1 0 -1.5 0-1.8-0.5-1.8-2 0-28.6 0-57.1 0-85.7 0-0.9 0-1.8 0-2.6 -0.2 0-0.3 0-0.5-0.2 -2.1 5-4.1 10.3-6.3 15.3 -8.9 21.9-17.7 43.8-26.6 65.5 -0.6 1.4-1.4 2.1-3.1 2 -4.4-0.2-8.9-0.2-13.2 0 -1.1 0-1.7-0.3-2-1.4 -7.6-19.6-15.3-39-22.9-58.6 -2.9-7.2-5.7-14.4-8.6-21.6C39.1 678.9 38.8 678.4 38 677.2zM338 636.2c0 27.7 0 54.8 0 82.5 -2.6-5.7-4.9-11-7.3-16.2 -4-8.7-7.6-17.4-11.8-26 -1.4-2.9 0.2-4.6 1.2-6.7C325.9 658.7 331.9 647.7 338 636.2z
    	M514.7 714.4c0-6.3 0-12.4 0-18.7 0-0.6-0.5-1.5 0.6-1.5 7.2 0.2 14.4-0.2 21.3 2.6 5 2 7.2 6.3 8 11.5 0.9 6.1 0.6 12.2-1.5 17.9 -2.4 6.3-8.3 7.3-14.1 7.8 -4.3 0.3-8.4 0.3-12.7 0.5 -1.2 0-1.7-0.3-1.7-1.5C514.9 726.8 514.7 720.5 514.7 714.4zM514.4 648.2c0-5.4 0-10.7 0-16.1 0-0.5-0.3-1.4 0.8-1.2 6.7 0.2 13.5-0.6 19.9 2.3 4.1 1.8 6.1 5.4 6.4 9.6 0.5 6.4 1.1 13.2-4 18.4 -3.1 3.2-7.5 3.4-11.6 3.8 -3.4 0.3-6.7 0.5-10.1 0.8 -1.1 0.2-1.2-0.3-1.2-1.4C514.4 659 514.4 653.5 514.4 648.2zM334.7 649.2c0 18.1 0 35.6 0 53.9 -2.8-6.1-5.2-11.6-7.6-17.1 -1.5-3.2-2.8-6.6-4.4-9.8 -1.1-2.1-0.3-3.7 0.6-5.4C327 663.9 330.7 656.7 334.7 649.2z"/>
    <path fill-rule="evenodd" d="M522.1 715.4c0.1-3.7 0-7.3 0-10.9 0-0.9 0.2-1.2 1.2-1.2 2.8 0.2 5.5 0.5 8.1 1.4 2.3 0.8 3.4 2.8 3.7 4.9 0.6 4.3 0.3 8.7-0.3 13 -0.8 5-4.9 4.6-8.4 5.2 -2.6 0.2-4.3 0.1-4.3-4C522 721 522 718.1 522.1 715.4zM522.1 648c0-2.1 0.1-4.8-0.1-6.8 -0.1-3.4 0.7-2.9 3.4-2.5 6.6 0.9 7.5 1.2 6.9 11.2 -0.3 6.4-3.1 8.3-9.3 7.8 -1.1-0.2-0.8-0.6-0.8-1.2C521.9 653.5 522.1 650.7 522.1 648z
    	M525.1 706.6c2 0 5.6-0.2 6.2 2.3 1.4 4.6 1.1 9.5-0.3 14.1 -0.6 2.3-3.4 1.4-5.2 1.7 -1.2 0.2-0.9-3.9-0.8-4.9C525.1 717.8 525.1 708.9 525.1 706.6M525.2 641.7c1.4 0 3.7 0.2 3.8 2.1 0.2 2.6 0 5.4-0.2 8 -0.2 1.7-1 2.4-2.6 2.3 -1.4 0-1-1.3-1.1-2.3C525.1 650.6 525.2 643 525.2 641.7"/>
  </g>
</svg>